<svg width="993" height="1518" viewBox="0 0 993 1518" fill="none" xmlns="http://www.w3.org/2000/svg">
<path d="M143.521 1.83011C210.724 3.25994 275.669 25.0968 343.121 27.8222C411.759 30.5954 480.891 28.3126 549.586 28.3126C609.281 28.3126 673.086 23.9795 730.305 44.0059C772.628 58.8189 815.245 72.0626 856.342 90.1051C899.135 108.892 944.721 128.205 962.517 173.966C975.163 206.485 990.961 235.353 990.961 271.069C990.961 309.281 951.821 327.526 920.341 344.141C880.374 365.234 829.041 369.644 786.457 385.826C749.117 400.016 710.441 402.073 672.19 412.309C633.734 422.6 594.849 430.285 555.962 438.791C471.824 457.196 389.021 485.242 310.753 521.181C265.587 541.921 225.792 572.068 184.226 598.912C147.526 622.614 111.927 644.716 79.7673 674.927C42.0611 710.348 2.28149 755.351 2.28149 810.036C2.28149 862.415 54.728 894.333 95.7058 917.438C163.363 955.585 239.535 981.502 313.206 1005.47C433.138 1044.48 558.455 1051.28 679.301 1083.2C715.879 1092.86 754.695 1100.06 792.342 1104.29C810.767 1106.36 839.943 1104.78 849.721 1124.88C862.587 1151.33 872.187 1179.96 885.031 1206.78C893.87 1225.24 898.272 1245.71 898.272 1266.12C898.272 1282.31 903.299 1306.12 893.859 1320.56C882.738 1337.57 864.69 1353.38 849.721 1366.66C793.18 1416.83 738.103 1470.36 677.585 1515.75" stroke="#DD614A" stroke-width="3" stroke-linecap="round"/>
</svg>
